<svg xmlns="http://www.w3.org/2000/svg" width="24" height="40" viewBox="0 0 24 40">
  <metadata><?xpacket begin="﻿" id="W5M0MpCehiHzreSzNTczkc9d"?>
<x:xmpmeta xmlns:x="adobe:ns:meta/" x:xmptk="Adobe XMP Core 5.6-c142 79.160924, 2017/07/13-01:06:39        ">
   <rdf:RDF xmlns:rdf="http://www.w3.org/1999/02/22-rdf-syntax-ns#">
      <rdf:Description rdf:about=""/>
   </rdf:RDF>
</x:xmpmeta>
                                                                                                    
                                                                                                    
                                                                                                    
                                                                                                    
                                                                                                    
                                                                                                    
                                                                                                    
                                                                                                    
                                                                                                    
                                                                                                    
                                                                                                    
                                                                                                    
                                                                                                    
                                                                                                    
                                                                                                    
                                                                                                    
                                                                                                    
                                                                                                    
                                                                                                    
                                                                                                    
                           
<?xpacket end="w"?></metadata>
<defs>
    <style>
      .cls-1 {
        fill: #fff;
        fill-rule: evenodd;
      }
    </style>
  </defs>
  <path class="cls-1" d="M1131,910a12,12,0,0,1-12-12V882a12,12,0,0,1,24,0v16A12,12,0,0,1,1131,910Zm10-28a10,10,0,0,0-20,0v16a10,10,0,0,0,20,0V882Zm-10-5a1,1,0,0,1,1,1v4a1,1,0,0,1-2,0v-4A1,1,0,0,1,1131,877Zm-5,16.2,1.16-1.2,4.68,4.805-1.17,1.2Zm10,0-1.16-1.2-4.68,4.805,1.17,1.2Zm-10,5,1.16-1.2,4.68,4.806-1.17,1.2Zm10,0-1.16-1.2-4.68,4.806,1.17,1.2Z" transform="translate(-1119 -870)"/>
</svg>
