<svg xmlns="http://www.w3.org/2000/svg" xmlns:xlink="http://www.w3.org/1999/xlink" preserveAspectRatio="xMidYMid" width="170" height="145" viewBox="0 0 170 145">
  <defs>
    <style>
      .cls-1 {
        fill: #00a6ae;
        fill-rule: evenodd;
      }
    </style>
  </defs>
  <path d="M85.000,0.000 C108.203,0.000 127.013,18.801 127.013,41.993 C127.013,65.185 108.203,83.987 85.000,83.987 C61.797,83.987 42.986,65.185 42.986,41.993 C42.986,18.801 61.797,0.000 85.000,0.000 L85.000,0.000 ZM2.629,137.918 L1.654,137.918 L1.654,140.432 L2.653,140.432 C3.125,140.432 3.515,140.337 3.824,140.148 C4.133,139.959 4.287,139.647 4.287,139.212 C4.287,138.753 4.141,138.422 3.848,138.221 C3.556,138.019 3.149,137.918 2.629,137.918 L2.629,137.918 ZM11.444,109.296 L7.438,109.296 L7.438,116.589 L11.525,116.589 C12.670,116.589 13.610,116.244 14.345,115.556 C15.081,114.867 15.449,113.983 15.449,112.902 C15.449,111.687 15.095,110.782 14.386,110.188 C13.678,109.594 12.697,109.296 11.444,109.296 L11.444,109.296 ZM0.000,131.052 L0.000,103.503 L11.689,103.503 C14.768,103.503 17.445,104.239 19.720,105.711 C21.995,107.183 23.132,109.580 23.132,112.902 C23.132,114.577 22.785,116.022 22.090,117.237 C21.395,118.452 20.489,119.438 19.372,120.194 L25.503,131.052 L16.879,131.052 L12.384,122.382 L7.438,122.382 L7.438,131.052 L0.000,131.052 L0.000,131.052 ZM28.772,131.052 L28.772,103.503 L47.144,103.503 L47.144,109.296 L36.211,109.296 L36.211,114.320 L44.701,114.320 L44.701,120.114 L36.211,120.114 L36.211,125.259 L47.144,125.259 L47.144,131.052 L28.772,131.052 L28.772,131.052 ZM51.150,131.052 L51.150,103.503 L63.329,103.503 C67.607,103.503 70.863,104.793 73.097,107.372 C75.331,109.951 76.448,113.199 76.448,117.116 C76.448,121.410 75.209,124.806 72.729,127.304 C70.250,129.803 67.062,131.052 63.166,131.052 L51.150,131.052 L51.150,131.052 ZM62.961,109.296 L58.588,109.296 L58.588,125.259 L62.675,125.259 C64.392,125.259 65.836,124.584 67.007,123.233 C68.179,121.882 68.765,119.843 68.765,117.116 C68.765,114.847 68.268,112.976 67.273,111.505 C66.279,110.032 64.841,109.296 62.961,109.296 L62.961,109.296 ZM100.480,131.052 L80.535,131.052 L80.535,103.503 L87.974,103.503 L87.974,125.259 L99.785,125.259 L100.480,131.052 L100.480,131.052 ZM103.749,131.052 L103.749,103.503 L111.188,103.503 L111.188,131.052 L103.749,131.052 L103.749,131.052 ZM116.909,131.052 L116.909,103.503 L123.817,103.503 L134.524,118.452 L134.524,103.503 L141.963,103.503 L141.963,131.052 L135.015,131.052 L124.348,116.549 L124.348,131.052 L116.909,131.052 L116.909,131.052 ZM169.999,115.171 L169.999,129.553 C168.910,130.201 167.404,130.701 165.483,131.052 C163.563,131.403 161.894,131.579 160.477,131.579 C155.954,131.579 152.487,130.336 150.075,127.851 C147.664,125.367 146.458,121.882 146.458,117.399 C146.458,112.889 147.807,109.357 150.505,106.805 C153.202,104.253 156.608,102.976 160.722,102.976 C162.112,102.976 163.685,103.173 165.442,103.564 C167.200,103.956 168.623,104.516 169.713,105.245 L167.506,110.229 C166.035,109.715 164.782,109.384 163.746,109.236 C162.711,109.087 161.730,109.013 160.804,109.013 C159.142,109.013 157.616,109.702 156.226,111.079 C154.837,112.457 154.142,114.550 154.142,117.359 C154.142,120.329 154.796,122.437 156.104,123.678 C157.411,124.920 158.937,125.542 160.681,125.542 C161.063,125.542 161.478,125.522 161.928,125.481 C162.377,125.441 162.834,125.380 163.297,125.299 L163.297,120.559 L158.515,120.559 L157.861,115.171 L169.999,115.171 L169.999,115.171 ZM119.751,138.595 L120.401,139.792 L121.749,140.034 L120.802,141.016 L120.986,142.363 L119.751,141.773 L118.517,142.363 L118.701,141.016 L117.754,140.034 L119.102,139.792 L119.751,138.595 L119.751,138.595 ZM69.495,138.595 L70.144,139.792 L71.493,140.034 L70.546,141.016 L70.730,142.363 L69.495,141.773 L68.260,142.363 L68.444,141.016 L67.497,140.034 L68.846,139.792 L69.495,138.595 L69.495,138.595 ZM34.552,138.595 L35.202,139.792 L36.550,140.034 L35.603,141.016 L35.787,142.363 L34.552,141.773 L33.317,142.363 L33.501,141.016 L32.554,140.034 L33.903,139.792 L34.552,138.595 L34.552,138.595 ZM4.897,144.831 L3.141,141.689 C3.052,141.697 2.958,141.703 2.861,141.707 C2.763,141.711 2.666,141.713 2.568,141.713 L1.654,141.713 L1.654,144.831 L0.081,144.831 L0.081,136.614 L2.678,136.614 C3.580,136.614 4.352,136.819 4.994,137.230 C5.636,137.641 5.957,138.277 5.957,139.139 C5.957,139.647 5.825,140.084 5.561,140.450 C5.297,140.817 4.958,141.101 4.543,141.303 L6.579,144.831 L4.897,144.831 L4.897,144.831 ZM13.233,144.831 L8.283,144.831 L8.283,136.614 L13.233,136.614 L13.233,137.846 L9.856,137.846 L9.856,140.058 L12.074,140.058 L12.074,141.303 L9.856,141.303 L9.856,143.611 L13.233,143.611 L13.233,144.831 L13.233,144.831 ZM15.900,143.019 C16.152,143.148 16.473,143.276 16.863,143.405 C17.253,143.534 17.623,143.598 17.972,143.598 C18.468,143.598 18.840,143.522 19.088,143.369 C19.336,143.216 19.460,142.994 19.460,142.704 C19.460,142.430 19.295,142.187 18.966,141.973 C18.637,141.760 18.273,141.552 17.875,141.351 C17.290,141.052 16.731,140.704 16.199,140.305 C15.666,139.907 15.400,139.345 15.400,138.619 C15.400,137.999 15.648,137.477 16.144,137.055 C16.639,136.632 17.342,136.420 18.253,136.420 C18.667,136.420 19.082,136.485 19.496,136.614 C19.911,136.742 20.276,136.883 20.593,137.036 L20.069,138.293 C19.817,138.172 19.545,138.058 19.252,137.949 C18.960,137.840 18.635,137.786 18.277,137.786 C17.928,137.786 17.633,137.854 17.393,137.991 C17.153,138.128 17.034,138.337 17.034,138.619 C17.034,138.918 17.178,139.165 17.466,139.363 C17.755,139.560 18.102,139.760 18.509,139.961 L18.594,140.009 C19.179,140.308 19.742,140.660 20.283,141.067 C20.823,141.474 21.093,142.027 21.093,142.728 C21.093,143.381 20.827,143.921 20.295,144.348 C19.762,144.775 18.996,144.988 17.997,144.988 C17.647,144.988 17.198,144.912 16.650,144.759 C16.101,144.605 15.733,144.449 15.546,144.287 L15.900,143.019 L15.900,143.019 ZM21.946,136.614 L28.651,136.614 L28.651,137.846 L26.066,137.846 L26.066,144.831 L24.469,144.831 L24.469,137.846 L21.946,137.846 L21.946,136.614 L21.946,136.614 ZM46.753,144.831 L41.803,144.831 L41.803,136.614 L46.753,136.614 L46.753,137.846 L43.376,137.846 L43.376,140.058 L45.595,140.058 L45.595,141.303 L43.376,141.303 L43.376,143.611 L46.753,143.611 L46.753,144.831 L46.753,144.831 ZM52.043,138.765 L50.958,141.629 L53.152,141.629 L52.043,138.765 L52.043,138.765 ZM52.750,136.614 L55.969,144.613 L54.384,144.831 L53.640,142.897 L50.495,142.897 L49.763,144.831 L48.178,144.831 L51.409,136.614 L52.750,136.614 L52.750,136.614 ZM56.673,136.614 L63.378,136.614 L63.378,137.846 L60.794,137.846 L60.794,144.831 L59.197,144.831 L59.197,137.846 L56.673,137.846 L56.673,136.614 L56.673,136.614 ZM79.554,144.831 L76.531,144.831 L76.531,136.614 L79.603,136.614 C80.879,136.614 81.826,136.996 82.443,137.761 C83.061,138.527 83.370,139.498 83.370,140.674 C83.370,141.947 83.037,142.958 82.370,143.707 C81.704,144.456 80.765,144.831 79.554,144.831 L79.554,144.831 ZM79.615,137.943 L78.103,137.943 L78.103,143.514 L79.530,143.514 C80.196,143.514 80.731,143.296 81.133,142.861 C81.535,142.426 81.736,141.697 81.736,140.674 C81.736,139.820 81.566,139.151 81.224,138.668 C80.883,138.184 80.347,137.943 79.615,137.943 L79.615,137.943 ZM88.207,137.918 L87.232,137.918 L87.232,140.432 L88.232,140.432 C88.703,140.432 89.093,140.337 89.402,140.148 C89.711,139.959 89.865,139.647 89.865,139.212 C89.865,138.753 89.719,138.422 89.426,138.221 C89.134,138.019 88.727,137.918 88.207,137.918 L88.207,137.918 ZM90.475,144.831 L88.719,141.689 C88.630,141.697 88.536,141.703 88.439,141.707 C88.341,141.711 88.244,141.713 88.146,141.713 L87.232,141.713 L87.232,144.831 L85.659,144.831 L85.659,136.614 L88.256,136.614 C89.158,136.614 89.930,136.819 90.572,137.230 C91.214,137.641 91.535,138.277 91.535,139.139 C91.535,139.647 91.403,140.084 91.139,140.450 C90.875,140.817 90.536,141.101 90.121,141.303 L92.157,144.831 L90.475,144.831 L90.475,144.831 ZM95.434,136.614 L95.434,144.831 L93.861,144.831 L93.861,136.614 L95.434,136.614 L95.434,136.614 ZM105.038,136.614 L105.038,144.831 L103.453,144.831 L99.613,139.332 L99.613,144.831 L98.040,144.831 L98.040,136.614 L99.613,136.614 L103.453,142.100 L103.453,136.614 L105.038,136.614 L105.038,136.614 ZM109.070,136.614 L109.070,140.058 L112.179,136.432 L113.349,137.326 L110.887,140.154 L114.349,144.831 L112.386,144.831 L109.851,141.351 L109.070,142.257 L109.070,144.831 L107.485,144.831 L107.485,136.614 L109.070,136.614 L109.070,136.614 ZM132.355,144.831 L126.882,144.831 L126.882,136.614 L128.454,136.614 L128.454,143.611 L132.111,143.611 L132.355,144.831 L132.355,144.831 ZM135.632,136.614 L135.632,144.831 L134.059,144.831 L134.059,136.614 L135.632,136.614 L135.632,136.614 ZM145.236,136.614 L145.236,144.831 L143.651,144.831 L139.811,139.332 L139.811,144.831 L138.238,144.831 L138.238,136.614 L139.811,136.614 L143.651,142.100 L143.651,136.614 L145.236,136.614 L145.236,136.614 ZM150.951,140.335 L153.974,140.335 L153.974,144.396 C153.657,144.565 153.275,144.708 152.828,144.825 C152.381,144.942 151.902,145.000 151.390,145.000 C150.097,145.000 149.128,144.587 148.482,143.762 C147.836,142.936 147.513,141.935 147.513,140.758 C147.513,139.510 147.879,138.479 148.610,137.665 C149.342,136.851 150.333,136.444 151.585,136.444 C151.829,136.444 152.176,136.485 152.627,136.565 C153.078,136.646 153.487,136.783 153.852,136.976 L153.353,138.100 C152.995,137.995 152.704,137.912 152.481,137.852 C152.257,137.792 151.967,137.761 151.609,137.761 C150.878,137.761 150.287,138.009 149.835,138.505 C149.384,139.000 149.159,139.747 149.159,140.746 C149.159,141.649 149.344,142.364 149.714,142.892 C150.083,143.419 150.630,143.683 151.353,143.683 C151.621,143.683 151.853,143.669 152.048,143.641 C152.243,143.613 152.414,143.582 152.560,143.550 L152.560,141.544 L150.817,141.544 L150.951,140.335 L150.951,140.335 ZM161.347,144.831 L156.398,144.831 L156.398,136.614 L161.347,136.614 L161.347,137.846 L157.970,137.846 L157.970,140.058 L160.189,140.058 L160.189,141.303 L157.970,141.303 L157.970,143.611 L161.347,143.611 L161.347,144.831 L161.347,144.831 ZM165.968,137.918 L164.993,137.918 L164.993,140.432 L165.993,140.432 C166.464,140.432 166.854,140.337 167.163,140.148 C167.472,139.959 167.626,139.647 167.626,139.212 C167.626,138.753 167.480,138.422 167.187,138.221 C166.895,138.019 166.488,137.918 165.968,137.918 L165.968,137.918 ZM168.236,144.831 L166.480,141.689 C166.391,141.697 166.297,141.703 166.200,141.707 C166.102,141.711 166.005,141.713 165.907,141.713 L164.993,141.713 L164.993,144.831 L163.420,144.831 L163.420,136.614 L166.017,136.614 C166.919,136.614 167.691,136.819 168.333,137.230 C168.975,137.641 169.297,138.277 169.297,139.139 C169.297,139.647 169.164,140.084 168.900,140.450 C168.636,140.817 168.297,141.101 167.882,141.303 L169.918,144.831 L168.236,144.831 L168.236,144.831 ZM58.170,53.425 C58.990,53.356 59.806,53.242 60.618,53.078 C64.130,52.369 67.563,50.743 70.825,48.032 C73.651,45.052 75.137,43.103 76.865,39.359 C77.120,38.808 77.163,38.332 77.384,37.767 C78.090,35.966 78.441,34.286 78.528,32.608 C78.596,29.879 78.091,27.051 77.012,24.116 C77.135,25.080 77.364,26.101 77.474,27.093 C78.350,35.029 75.616,41.142 69.782,46.513 C66.987,49.086 63.421,51.274 59.488,51.869 C55.815,52.425 52.393,51.999 48.808,51.441 C48.344,51.369 47.820,51.247 47.293,51.135 C47.332,51.299 47.373,51.462 47.414,51.624 C48.762,52.157 50.097,52.678 51.616,52.950 C53.838,53.350 56.021,53.542 58.170,53.425 L58.170,53.425 ZM79.167,31.439 C79.188,32.061 79.180,32.679 79.144,33.293 C80.091,36.507 80.664,39.690 80.934,42.849 C81.162,45.512 81.175,48.156 81.016,50.785 C81.178,50.315 81.326,49.839 81.461,49.359 L81.463,49.359 L81.466,49.343 C81.954,47.600 82.263,45.792 82.384,43.916 C82.390,43.898 82.395,43.879 82.401,43.859 C82.207,41.913 81.943,39.968 81.548,38.025 C81.109,35.864 80.129,33.621 79.167,31.439 L79.167,31.439 ZM79.018,34.636 C79.000,34.776 78.981,34.915 78.960,35.053 C78.839,35.856 78.669,36.650 78.448,37.435 C78.782,40.730 78.935,43.995 78.911,47.232 C78.887,50.301 78.704,53.341 78.364,56.352 C79.160,55.063 79.846,53.736 80.416,52.366 C80.688,49.229 80.727,46.074 80.455,42.895 C80.221,40.163 79.758,37.411 79.018,34.636 L79.018,34.636 ZM78.076,38.616 C77.898,39.129 77.697,39.638 77.475,40.143 C77.615,43.911 77.482,47.568 77.077,51.116 C76.709,54.341 76.116,57.476 75.298,60.522 C76.201,59.470 77.025,58.391 77.767,57.282 C78.181,53.959 78.403,50.608 78.429,47.227 C78.451,44.381 78.334,41.511 78.076,38.616 L78.076,38.616 ZM77.022,41.107 C76.890,41.372 76.751,41.636 76.607,41.899 C76.584,46.254 75.908,50.433 74.724,54.477 C73.612,58.272 72.052,61.947 70.165,65.534 C71.776,64.192 73.247,62.798 74.566,61.350 C75.516,58.030 76.193,54.599 76.598,51.056 C76.966,47.831 77.107,44.515 77.022,41.107 L77.022,41.107 ZM76.112,42.757 C75.936,43.048 75.753,43.338 75.561,43.627 C75.254,48.691 73.913,53.388 71.856,57.828 C69.933,61.983 67.384,65.912 64.474,69.709 C66.145,68.621 67.716,67.497 69.180,66.335 C71.306,62.445 73.053,58.456 74.263,54.324 C75.356,50.594 76.011,46.749 76.112,42.757 L76.112,42.757 ZM75.022,44.409 C74.805,44.712 74.579,45.014 74.346,45.315 C73.344,50.209 71.622,54.800 69.246,59.115 C66.795,63.565 63.649,67.719 59.880,71.609 C60.088,71.782 60.298,71.953 60.510,72.124 C61.318,71.663 62.106,71.196 62.876,70.722 L62.872,70.726 L62.889,70.714 C63.003,70.643 63.117,70.573 63.231,70.502 C66.483,66.383 69.330,62.123 71.424,57.602 C73.343,53.458 74.631,49.092 75.022,44.409 L75.022,44.409 ZM73.671,46.150 C73.427,46.442 73.175,46.732 72.914,47.021 L72.898,47.037 C72.706,47.222 72.512,47.403 72.318,47.581 C71.062,51.930 69.390,55.987 67.241,59.710 C64.934,63.705 62.078,67.316 58.596,70.491 C58.892,70.760 59.193,71.025 59.499,71.286 C63.259,67.414 66.393,63.281 68.830,58.855 C71.027,54.867 72.658,50.640 73.671,46.150 L73.671,46.150 ZM71.633,48.190 C71.161,48.597 70.685,48.981 70.206,49.343 C68.972,53.053 67.303,56.545 65.187,59.811 C63.009,63.176 60.357,66.302 57.223,69.182 C57.551,69.511 57.886,69.834 58.228,70.152 C61.692,67.004 64.535,63.415 66.829,59.440 C68.831,55.972 70.416,52.210 71.633,48.190 L71.633,48.190 ZM69.521,49.843 C69.015,50.202 68.505,50.536 67.991,50.847 C66.994,54.164 65.561,57.242 63.695,60.085 C61.727,63.083 59.280,65.817 56.358,68.290 C56.527,68.470 56.699,68.650 56.872,68.828 C59.990,65.967 62.627,62.863 64.791,59.520 C66.753,56.490 68.327,53.263 69.521,49.843 L69.521,49.843 ZM67.372,51.210 C66.946,51.452 66.517,51.678 66.086,51.888 C65.440,55.061 63.950,57.835 62.134,60.369 C60.310,62.915 58.157,65.215 55.428,67.261 C55.622,67.483 55.819,67.704 56.018,67.922 C58.922,65.470 61.351,62.761 63.300,59.792 C65.040,57.141 66.398,54.281 67.372,51.210 L67.372,51.210 ZM65.536,52.147 C65.113,52.341 64.688,52.519 64.261,52.683 C63.216,55.393 62.199,57.975 60.533,60.202 C58.878,62.413 56.579,64.271 54.492,66.142 C54.692,66.389 54.894,66.635 55.100,66.878 C57.813,64.851 59.948,62.574 61.750,60.058 C63.453,57.681 64.882,55.093 65.536,52.147 L65.536,52.147 ZM63.649,52.908 C63.330,53.020 63.010,53.123 62.688,53.220 C61.644,55.574 60.507,57.902 58.997,59.907 C57.506,61.888 55.646,63.551 53.822,65.282 C53.941,65.439 54.060,65.594 54.181,65.749 C56.246,63.897 58.523,62.064 60.155,59.882 C61.708,57.807 62.643,55.403 63.649,52.908 L63.649,52.908 ZM62.074,53.394 C61.800,53.468 61.525,53.536 61.249,53.599 C60.237,55.660 59.015,57.489 57.638,59.155 C56.196,60.900 54.582,62.473 52.863,63.954 C53.078,64.266 53.297,64.575 53.522,64.880 C55.319,63.173 57.152,61.537 58.622,59.585 C60.023,57.724 61.077,55.560 62.074,53.394 L62.074,53.394 ZM60.639,53.728 C59.988,53.856 59.334,53.954 58.678,54.022 C58.166,54.718 57.866,55.627 57.377,56.319 C55.748,58.623 53.962,60.666 51.938,62.541 C52.147,62.877 52.362,63.209 52.581,63.537 C54.269,62.082 55.855,60.535 57.275,58.815 C58.547,57.276 59.684,55.598 60.639,53.728 L60.639,53.728 ZM58.026,54.080 C57.342,54.130 56.656,54.150 55.969,54.139 C55.425,55.512 54.751,56.752 53.976,57.888 C53.206,59.016 52.120,60.225 51.149,61.210 C51.319,61.512 51.494,61.811 51.672,62.107 C53.637,60.274 55.394,58.273 56.992,56.012 C57.397,55.439 57.612,54.650 58.026,54.080 L58.026,54.080 ZM55.451,54.125 C54.850,54.102 54.248,54.056 53.645,53.988 C53.250,55.056 52.756,56.042 52.193,56.969 C51.709,57.765 50.903,58.758 50.264,59.549 C50.468,59.956 50.678,60.359 50.896,60.756 C51.816,59.815 52.856,58.656 53.585,57.586 C54.306,56.529 54.937,55.384 55.451,54.125 L55.451,54.125 ZM53.149,53.927 C52.706,53.868 52.263,53.796 51.820,53.714 C51.450,54.879 50.665,56.854 49.566,58.076 C49.713,58.405 49.866,58.732 50.022,59.056 C50.604,58.329 51.352,57.409 51.789,56.690 C52.312,55.828 52.774,54.914 53.149,53.927 L53.149,53.927 ZM51.340,53.620 C50.970,53.544 50.601,53.460 50.232,53.369 C50.176,53.846 50.142,54.107 50.012,54.459 C49.875,54.831 49.406,55.579 48.904,56.505 C49.047,56.865 49.194,57.221 49.345,57.574 C50.273,56.459 50.988,54.702 51.340,53.620 L51.340,53.620 ZM49.759,53.247 C49.314,53.129 48.869,52.999 48.424,52.858 C48.340,53.195 48.164,53.615 47.992,53.952 C48.204,54.615 48.430,55.266 48.672,55.905 C49.064,55.192 49.457,54.561 49.563,54.271 C49.675,53.969 49.703,53.724 49.759,53.252 L49.759,53.247 L49.759,53.247 ZM47.945,52.703 C47.823,52.661 47.700,52.620 47.577,52.577 C47.632,52.769 47.687,52.960 47.744,53.151 C47.813,53.003 47.895,52.834 47.945,52.703 L47.945,52.703 ZM115.981,42.209 C115.607,43.534 115.079,44.791 114.407,45.985 C113.500,47.602 112.330,49.104 110.926,50.506 C111.326,50.469 111.947,50.377 112.201,50.333 C113.479,50.116 115.899,45.442 115.981,42.209 L115.981,42.209 ZM110.137,51.278 C109.765,51.659 109.289,51.980 108.964,52.392 C111.195,51.849 112.689,51.752 115.044,52.592 C117.939,53.623 119.622,55.626 120.356,57.970 C120.667,57.283 120.959,56.584 121.231,55.876 C120.907,54.891 120.446,53.956 119.831,53.105 C118.596,51.396 116.360,50.886 114.343,50.709 C112.797,50.573 111.292,50.599 110.137,51.278 L110.137,51.278 ZM107.241,54.137 C107.661,53.512 108.167,52.812 108.739,52.119 C109.210,51.549 109.727,50.983 110.279,50.466 C110.485,50.268 110.685,50.068 110.881,49.865 L112.045,48.536 C112.095,48.486 112.144,48.436 112.192,48.386 C112.873,47.542 113.473,46.665 113.986,45.750 C114.676,44.521 115.211,43.227 115.577,41.861 C115.938,40.119 115.980,38.290 115.725,36.460 C114.906,39.243 115.681,39.561 112.357,45.090 C111.851,45.932 111.223,46.662 110.711,47.441 C110.439,47.855 110.115,48.159 109.812,48.540 C108.062,50.728 104.942,54.371 104.107,56.727 C104.890,55.878 105.142,55.341 106.207,54.696 C106.758,54.361 107.062,54.215 107.241,54.137 L107.241,54.137 ZM82.350,39.717 C82.193,37.317 81.862,34.918 81.329,32.518 C80.647,30.960 79.806,29.381 79.041,27.843 C79.093,28.593 79.117,29.338 79.111,30.074 C80.317,32.670 81.497,35.342 82.020,37.915 C82.142,38.516 82.252,39.116 82.350,39.717 L82.350,39.717 ZM80.481,29.270 C80.118,28.060 79.699,26.850 79.222,25.641 C78.968,25.341 78.665,25.051 78.401,24.758 C78.514,25.228 78.624,25.691 78.717,26.095 C79.254,27.131 79.898,28.203 80.481,29.270 L80.481,29.270 ZM78.859,24.222 L78.794,24.072 C78.837,24.283 77.516,21.545 77.541,21.845 C77.559,22.078 77.813,22.810 78.146,23.690 C78.264,23.812 78.713,24.102 78.859,24.222 L78.859,24.222 ZM85.073,3.221 C82.894,9.224 87.722,16.565 93.655,14.990 C99.813,13.356 98.650,6.221 95.566,6.025 C96.281,6.715 96.750,7.150 96.947,8.265 C97.472,11.231 94.943,13.637 91.546,13.159 C87.105,12.534 84.942,7.509 87.282,3.287 C86.551,3.244 85.814,3.221 85.073,3.221 L85.073,3.221 ZM87.922,3.328 C87.597,3.937 87.348,4.614 87.192,5.370 C86.163,10.339 89.365,13.028 93.163,12.503 C95.064,12.241 96.410,10.830 96.304,8.864 C96.196,6.857 93.603,4.886 92.944,6.497 C92.759,7.144 94.961,7.238 95.068,8.313 C95.193,11.251 89.806,11.146 90.091,6.380 C90.232,5.364 90.530,4.468 90.958,3.675 C89.958,3.521 88.945,3.404 87.922,3.328 L87.922,3.328 ZM92.366,3.918 C91.363,5.060 90.453,6.223 90.993,7.923 C91.406,9.228 93.299,10.406 94.309,9.076 C94.722,7.136 92.122,7.695 92.048,6.365 C91.979,5.131 94.635,4.730 95.517,4.726 C95.597,4.725 95.676,4.727 95.755,4.730 C94.645,4.411 93.514,4.139 92.366,3.918 L92.366,3.918 ZM98.676,5.699 C99.927,6.546 100.850,7.876 101.198,9.398 C102.550,15.305 95.489,19.434 90.333,19.057 C83.961,18.591 81.127,12.964 81.865,7.091 C82.045,5.656 82.320,4.399 82.705,3.288 C81.610,3.351 80.527,3.461 79.458,3.613 C78.332,7.209 78.400,11.207 80.294,14.190 C83.772,19.668 91.391,21.333 97.182,18.751 C101.215,16.954 104.078,11.942 103.199,7.744 C101.744,6.971 100.234,6.286 98.676,5.699 L98.676,5.699 ZM83.375,3.254 C82.803,4.829 82.471,6.620 82.380,8.065 C82.219,10.630 82.711,13.310 84.306,15.355 C89.361,21.836 101.569,16.804 100.730,10.210 C100.453,8.031 98.626,5.554 96.245,5.487 C99.181,6.798 100.132,12.502 95.476,15.049 C91.664,17.136 87.140,14.905 85.192,11.528 C83.641,8.842 83.593,5.888 84.600,3.222 C84.191,3.227 83.782,3.237 83.375,3.254 L83.375,3.254 ZM111.554,13.621 C109.458,16.746 108.441,20.070 107.198,23.582 C106.736,24.862 106.939,25.162 107.568,26.273 C109.177,22.920 110.282,18.985 112.092,15.662 C112.264,15.347 112.435,15.047 112.607,14.756 C112.314,14.383 111.945,13.985 111.554,13.621 L111.554,13.621 ZM111.154,13.358 C110.927,13.151 110.698,12.946 110.466,12.745 L110.357,12.873 C109.670,13.692 108.814,14.885 108.239,15.809 C107.297,17.323 105.176,21.673 105.113,23.325 C105.766,23.683 106.442,24.327 106.553,24.394 C107.301,21.835 109.871,15.288 111.154,13.358 L111.154,13.358 ZM110.210,12.524 C109.798,12.172 109.379,11.827 108.953,11.492 C108.503,11.982 108.103,12.491 107.764,12.982 C106.060,15.449 103.962,20.779 101.400,22.192 C102.933,22.381 103.180,22.457 104.573,22.917 C105.871,19.107 107.069,16.451 109.699,13.151 C109.867,12.940 110.037,12.731 110.210,12.524 L110.210,12.524 ZM108.617,11.231 C108.359,11.033 108.098,10.837 107.834,10.645 C107.399,11.308 106.924,11.777 106.607,12.337 C103.003,17.464 102.497,18.590 96.449,22.635 L96.748,22.933 C96.793,22.991 96.838,23.051 96.883,23.113 L96.931,23.084 C99.913,21.344 100.367,23.448 103.163,19.981 C103.721,18.929 104.553,17.854 105.134,16.706 C105.721,15.548 106.427,14.469 107.066,13.343 C107.523,12.539 108.037,11.841 108.617,11.231 L108.617,11.231 ZM107.306,10.221 C107.085,10.074 105.999,9.386 105.775,9.244 C105.766,10.542 105.700,11.984 105.240,13.261 C106.131,12.232 106.636,11.482 107.306,10.221 L107.306,10.221 ZM105.129,8.842 C104.754,8.614 104.376,8.394 103.994,8.179 C104.365,10.750 103.568,13.572 101.728,16.005 C98.115,20.780 90.882,21.789 85.567,19.503 C79.737,16.996 77.166,11.173 78.407,5.038 C78.498,4.586 78.602,4.149 78.718,3.726 C78.443,3.771 78.170,3.819 77.897,3.869 C77.530,4.907 77.228,5.999 76.986,7.144 C75.432,14.489 78.496,19.116 85.532,21.176 C91.298,22.864 99.119,21.039 102.919,16.251 C104.775,13.913 105.392,11.252 105.129,8.842 L105.129,8.842 ZM77.158,4.012 C76.629,4.121 76.104,4.241 75.583,4.371 C73.929,8.815 74.173,13.603 78.117,17.888 C79.730,19.640 81.880,20.959 84.148,21.712 C86.407,22.370 91.864,22.919 92.963,22.133 C92.079,22.194 90.527,22.279 88.219,22.109 C81.616,21.329 76.079,18.050 75.933,10.734 C75.890,8.557 76.333,6.252 77.158,4.012 L77.158,4.012 ZM75.044,4.510 C74.166,4.742 73.300,5.004 72.447,5.295 C71.584,8.086 71.546,10.462 72.490,13.287 C75.195,21.380 86.859,25.437 95.079,22.643 C96.883,22.133 98.416,20.709 98.719,20.612 C96.183,21.555 94.699,22.639 91.284,22.853 C88.405,23.032 86.074,22.676 83.361,21.831 C79.411,20.602 75.497,16.848 74.546,12.762 C73.857,9.802 74.139,7.052 75.044,4.510 L75.044,4.510 ZM70.988,5.827 C70.669,5.951 70.351,6.079 70.036,6.210 C67.829,9.717 65.290,12.921 61.108,14.912 C59.623,15.618 57.851,16.070 56.059,16.175 C55.924,16.326 55.790,16.477 55.657,16.630 C57.346,16.556 59.032,16.194 60.558,15.657 C63.955,14.463 66.572,12.107 68.668,9.303 C69.650,7.988 70.368,6.884 70.988,5.827 L70.988,5.827 ZM69.408,6.480 C68.858,6.721 68.314,6.975 67.778,7.240 C67.553,7.503 67.343,7.726 67.152,7.902 C64.900,9.976 64.933,10.359 61.947,12.339 C60.698,13.168 59.255,13.926 57.745,14.403 C57.260,14.882 56.789,15.371 56.329,15.875 C62.057,15.453 66.225,11.210 69.408,6.480 L69.408,6.480 ZM66.234,8.051 C65.478,8.469 64.737,8.912 64.012,9.379 C63.126,10.290 62.290,10.823 61.027,11.508 C60.456,11.957 59.899,12.421 59.355,12.901 C61.903,11.717 64.531,9.862 66.234,8.051 L66.234,8.051 ZM54.892,17.542 C54.538,17.977 54.193,18.420 53.858,18.871 C56.089,18.343 58.234,17.528 60.190,16.409 C59.598,16.503 58.749,16.801 58.086,16.952 C57.260,17.140 56.464,17.183 55.671,17.367 C55.407,17.428 55.148,17.487 54.892,17.542 L54.892,17.542 ZM53.562,19.273 C53.139,19.857 52.732,20.454 52.341,21.061 C52.679,20.988 53.021,20.907 53.367,20.816 C57.995,19.608 64.316,16.007 66.784,12.300 C64.991,14.157 60.421,16.923 58.010,17.814 C56.445,18.393 55.001,18.893 53.562,19.273 L53.562,19.273 ZM52.090,21.457 C51.704,22.073 51.336,22.699 50.985,23.338 C52.529,23.034 54.165,22.549 55.913,21.828 C58.138,20.911 61.871,17.961 63.495,16.270 C62.136,17.052 61.584,17.721 59.564,18.780 C57.337,19.949 54.750,20.895 52.090,21.457 L52.090,21.457 ZM50.679,23.904 C50.458,24.322 50.244,24.745 50.038,25.173 C52.902,24.665 55.247,23.334 57.895,21.813 C60.346,20.406 64.561,17.305 65.681,14.794 C64.963,15.207 62.026,18.743 57.541,21.349 C55.160,22.732 52.893,23.517 50.679,23.904 L50.679,23.904 ZM49.831,25.609 C49.732,25.820 49.636,26.033 49.541,26.247 C50.459,26.080 51.431,25.835 52.528,25.508 C53.730,25.150 55.698,24.283 56.747,23.603 C57.527,23.097 59.786,21.513 60.209,20.844 C59.594,21.026 55.787,23.829 52.544,24.932 C51.620,25.247 50.720,25.468 49.831,25.609 L49.831,25.609 ZM49.394,26.581 C49.222,26.977 49.057,27.375 48.898,27.777 C52.157,27.316 55.510,25.615 57.869,23.332 C57.206,23.623 56.423,24.155 55.744,24.487 C54.986,24.859 54.196,25.250 53.368,25.521 C51.823,26.026 50.530,26.368 49.394,26.581 L49.394,26.581 ZM48.754,28.148 C48.614,28.516 48.479,28.886 48.349,29.259 C51.510,28.910 54.391,27.536 56.692,25.197 C57.363,24.515 59.889,22.097 60.230,21.547 C59.924,22.015 57.759,23.828 57.254,24.231 C54.125,26.727 51.350,27.820 48.754,28.148 L48.754,28.148 ZM48.217,29.645 C48.118,29.939 48.023,30.234 47.931,30.531 C49.221,30.303 50.397,29.851 51.314,29.080 C50.266,29.252 49.476,29.525 48.312,29.636 L48.217,29.645 L48.217,29.645 ZM47.819,30.901 L47.737,31.179 C48.404,30.975 49.101,30.718 49.836,30.399 C49.041,30.620 48.404,30.785 47.819,30.901 L47.819,30.901 ZM47.324,32.721 C47.225,33.123 47.133,33.528 47.047,33.935 C50.626,31.875 53.823,29.683 56.739,26.656 C57.488,25.879 58.200,25.013 58.929,24.255 C59.669,23.486 60.337,22.538 61.041,21.782 C62.269,20.462 64.380,18.075 65.074,16.461 C64.320,17.043 61.836,20.429 60.762,21.565 C59.918,22.505 59.087,23.463 58.202,24.354 C57.307,25.253 56.347,26.083 55.402,26.963 C53.857,28.402 50.994,30.542 49.223,31.608 C48.550,32.012 47.921,32.381 47.324,32.721 L47.324,32.721 ZM46.925,34.535 C46.811,35.120 46.711,35.709 46.623,36.302 C50.119,34.872 52.654,33.128 55.519,30.371 C57.048,28.900 62.297,22.019 62.692,20.610 C60.916,22.130 58.103,26.597 54.013,29.693 C50.706,32.198 49.367,33.283 46.925,34.535 L46.925,34.535 ZM46.558,36.768 C46.502,37.180 46.453,37.594 46.410,38.011 C50.256,36.492 53.988,34.276 56.784,31.287 C57.775,30.227 57.898,30.239 59.038,28.841 C61.289,26.080 62.755,22.899 64.565,20.011 C65.675,18.238 66.998,15.751 67.926,13.853 C68.248,13.195 71.062,7.433 70.873,7.139 C70.765,6.970 66.189,15.641 65.639,16.499 C65.011,17.478 64.491,18.696 63.835,19.644 C63.242,20.500 62.610,21.718 62.026,22.651 C60.255,25.480 57.882,28.695 55.545,30.988 C52.328,34.144 49.941,35.514 46.558,36.768 L46.558,36.768 ZM46.360,38.537 C46.333,38.842 46.310,39.148 46.290,39.454 C50.446,38.333 54.697,36.664 58.812,32.845 C61.512,30.339 63.751,27.315 65.282,23.911 C66.365,21.505 68.901,14.834 69.240,12.410 C66.997,16.722 63.346,23.905 60.498,27.826 C59.938,28.597 59.327,29.303 58.709,30.033 C55.521,33.803 51.308,36.461 46.798,38.359 C46.654,38.419 46.507,38.478 46.360,38.537 L46.360,38.537 ZM46.262,39.937 C46.246,40.242 46.234,40.549 46.225,40.856 C48.584,40.261 50.720,39.709 53.268,38.706 C56.199,37.551 58.408,35.820 60.358,33.446 C63.694,29.385 67.443,22.322 68.955,17.349 C70.327,12.835 70.985,12.132 71.257,7.432 L71.242,7.379 C71.075,7.275 68.586,16.125 68.366,16.875 C67.442,20.035 66.300,22.760 64.835,25.687 C62.399,30.552 57.192,35.695 52.097,37.773 C50.087,38.593 48.226,39.340 46.262,39.937 L46.262,39.937 ZM46.214,41.347 C46.207,41.735 46.206,42.123 46.211,42.512 C47.612,42.259 49.017,41.953 50.470,41.440 C55.747,39.576 60.436,36.319 63.661,31.811 C65.466,29.290 66.410,27.206 67.625,24.368 C68.307,22.775 70.071,17.035 70.050,15.498 C69.869,17.187 67.662,21.966 66.842,23.699 C65.628,26.264 64.107,28.714 62.636,31.138 C59.174,36.845 55.299,39.073 48.907,40.705 C48.057,40.922 47.152,41.133 46.214,41.347 L46.214,41.347 ZM46.218,42.877 C46.224,43.148 46.233,43.418 46.245,43.688 C49.006,43.063 51.770,42.391 54.399,41.249 C63.201,37.425 67.052,29.785 69.618,21.187 C70.097,19.581 71.826,12.832 71.214,11.604 C70.841,12.950 70.636,15.009 70.334,16.489 C69.780,19.201 68.750,23.032 67.621,25.532 C65.756,29.661 64.083,32.693 60.620,35.945 C58.552,37.886 56.177,39.472 53.612,40.701 C51.040,41.933 48.774,42.384 46.218,42.877 L46.218,42.877 ZM46.268,44.165 C46.281,44.400 46.296,44.635 46.313,44.869 C48.322,44.604 50.105,44.425 54.442,42.818 C57.194,41.799 61.312,39.125 63.340,37.016 C66.035,34.214 67.931,32.214 69.587,28.562 C71.736,23.825 71.823,21.019 71.507,15.874 C71.481,15.775 70.435,22.191 67.903,27.819 C66.589,30.740 63.866,34.926 61.456,37.016 L59.417,38.856 C57.517,40.471 54.167,42.121 51.753,42.836 C49.948,43.370 48.102,43.776 46.268,44.165 L46.268,44.165 ZM46.345,45.267 C46.364,45.500 46.385,45.732 46.409,45.964 C47.278,45.818 48.144,45.679 49.011,45.506 C54.310,44.445 56.257,43.560 60.854,41.233 C63.645,39.821 67.934,36.287 69.446,33.713 C71.689,29.894 72.288,26.807 72.183,22.375 C72.173,21.991 72.037,20.737 72.063,20.545 C71.624,25.149 70.673,28.428 67.845,32.346 C62.720,39.447 57.064,43.054 48.373,44.863 C47.758,44.990 47.072,45.123 46.345,45.267 L46.345,45.267 ZM46.461,46.444 C46.483,46.641 46.508,46.838 46.533,47.034 C47.354,46.946 48.155,46.865 48.886,46.768 C55.711,45.867 61.141,44.437 66.363,39.565 C69.183,36.934 71.856,33.627 72.970,29.715 C73.678,27.225 74.031,25.108 73.740,22.490 C73.613,21.346 72.775,16.245 72.328,15.519 C72.350,20.768 73.415,26.085 71.341,31.134 C69.028,36.765 63.481,40.893 57.992,43.312 C55.747,44.300 53.993,44.917 51.612,45.515 C50.678,45.749 48.674,46.069 46.461,46.444 L46.461,46.444 ZM46.608,47.576 L46.643,47.821 C47.131,47.819 47.713,47.823 48.457,47.830 C55.400,47.898 59.902,47.479 65.846,43.048 C69.794,40.105 73.941,34.950 74.600,29.803 C75.039,26.370 74.418,25.510 74.284,22.989 C74.057,25.533 74.349,26.837 73.540,29.459 C70.923,37.947 62.918,44.463 54.338,46.357 C53.357,46.573 49.750,47.148 46.608,47.576 L46.608,47.576 ZM46.748,48.475 C46.825,48.930 46.909,49.383 47.001,49.833 C47.864,49.903 48.594,49.948 48.983,49.966 C56.446,50.301 62.889,48.861 68.532,43.618 C74.860,37.738 77.718,30.083 75.128,21.700 C74.807,20.659 74.171,19.493 73.923,18.634 C74.471,23.154 76.456,27.341 74.396,32.659 C73.648,34.589 72.654,36.332 71.484,37.983 C70.733,39.042 68.533,41.598 67.545,42.278 C66.813,42.781 66.104,43.486 65.303,44.038 C62.780,45.779 59.784,47.304 56.731,47.809 C53.416,48.357 50.099,48.348 46.748,48.475 L46.748,48.475 ZM47.118,50.379 L47.147,50.507 C48.768,50.813 51.303,51.349 52.698,51.483 C55.254,51.728 57.734,51.827 60.249,51.207 C68.022,49.294 74.719,42.375 76.646,34.908 C77.726,30.722 77.157,24.761 75.426,20.875 C76.005,23.562 76.466,24.242 76.551,27.427 C76.685,32.440 74.609,37.888 71.275,41.535 C70.925,41.918 70.832,42.174 70.410,42.554 C70.094,42.839 69.648,43.242 69.389,43.532 C67.327,45.851 62.765,48.524 59.729,49.406 C55.257,50.704 51.498,50.653 47.118,50.379 L47.118,50.379 ZM81.237,80.586 C81.863,80.646 82.495,80.691 83.130,80.721 C82.053,80.163 80.994,79.565 79.759,79.047 C79.320,78.863 78.913,78.693 78.516,78.543 C78.523,78.779 78.532,79.017 78.544,79.258 C79.476,79.636 80.359,80.098 81.237,80.586 L81.237,80.586 ZM83.784,80.747 C84.443,80.767 85.099,80.771 85.758,80.758 C83.120,79.926 81.172,78.094 78.510,77.238 C78.503,77.580 78.503,77.930 78.510,78.286 C80.245,78.951 81.949,79.927 83.784,80.747 L83.784,80.747 ZM87.575,80.682 C88.641,80.612 89.695,80.499 90.735,80.345 C89.772,80.311 88.777,80.123 87.693,79.816 C83.292,78.573 81.020,77.090 78.542,76.372 C78.534,76.529 78.526,76.687 78.521,76.848 C80.756,77.612 82.540,79.103 84.693,79.872 C85.708,80.235 86.662,80.504 87.575,80.682 L87.575,80.682 ZM94.504,79.593 C95.409,79.365 96.301,79.106 97.180,78.816 C97.512,78.623 97.848,78.417 98.189,78.198 C98.769,77.826 101.201,76.196 101.461,75.759 L100.692,75.465 C100.637,75.495 98.825,77.097 98.179,77.479 C97.220,78.045 96.295,78.663 95.304,79.199 C95.033,79.345 94.767,79.477 94.504,79.593 L94.504,79.593 ZM98.623,78.307 C99.689,77.908 100.732,77.463 101.751,76.975 C102.077,76.624 102.330,76.282 102.477,75.964 L101.749,75.858 C101.055,76.617 99.867,77.511 98.623,78.307 L98.623,78.307 ZM102.250,76.732 C102.607,76.554 102.960,76.370 103.311,76.182 L102.800,76.045 C102.567,76.327 102.390,76.550 102.250,76.732 L102.250,76.732 ZM104.042,75.781 C104.386,75.587 104.726,75.388 105.062,75.185 C99.279,75.040 94.206,71.416 94.377,64.118 C94.389,63.631 94.417,63.151 94.462,62.678 C94.137,62.635 93.812,62.582 93.490,62.525 C93.319,63.774 93.292,65.027 93.473,66.259 C94.048,70.176 96.819,73.505 100.511,74.880 C101.693,75.319 102.875,75.617 104.042,75.781 L104.042,75.781 ZM105.774,74.743 C106.308,74.404 106.832,74.053 107.347,73.689 C105.663,73.887 103.952,73.766 102.344,73.284 C100.453,72.718 99.567,71.902 98.218,70.587 C96.369,68.785 95.848,65.635 96.032,62.783 C95.639,62.786 95.216,62.764 94.765,62.715 C94.387,66.657 95.178,69.814 98.399,72.521 C100.372,74.179 103.100,74.819 105.774,74.743 L105.774,74.743 ZM108.257,73.027 C109.240,72.290 110.188,71.508 111.095,70.682 C109.793,71.383 108.351,71.832 107.051,71.872 C101.663,72.036 98.436,67.768 98.758,62.091 C98.199,62.469 97.452,62.698 96.520,62.763 C96.507,62.942 96.498,63.119 96.492,63.296 C96.334,68.191 98.481,71.970 103.447,73.013 C105.053,73.351 106.687,73.340 108.257,73.027 L108.257,73.027 ZM115.899,65.438 C116.757,64.309 117.555,63.133 118.288,61.912 C118.389,59.906 117.702,58.356 116.325,56.723 C115.083,55.249 112.575,54.151 110.664,54.031 C105.518,53.708 102.232,58.953 103.151,62.942 C103.625,65.000 105.960,66.461 108.397,65.941 C100.819,65.203 103.122,55.000 110.223,55.140 C113.174,55.198 115.543,57.160 116.413,59.926 C117.066,61.998 116.720,63.774 115.899,65.438 L115.899,65.438 ZM118.694,61.219 C119.198,60.339 119.668,59.438 120.103,58.516 C119.852,57.447 119.426,56.462 118.803,55.657 C115.579,51.495 108.915,52.225 108.073,53.831 C114.406,52.642 118.392,56.378 118.694,61.219 L118.694,61.219 ZM121.491,55.177 C122.313,52.905 122.928,50.533 123.315,48.085 C122.939,47.630 122.051,46.778 121.706,46.603 C122.947,49.374 123.208,49.422 121.902,53.331 C121.686,53.977 121.244,54.622 121.491,55.177 L121.491,55.177 ZM123.395,47.552 L123.439,47.236 C123.289,47.176 123.138,47.137 122.993,47.121 C123.112,47.209 123.253,47.364 123.395,47.552 L123.395,47.552 ZM123.521,46.592 C123.568,46.194 123.609,45.794 123.644,45.391 C115.148,40.999 115.883,32.007 119.931,25.110 C119.827,24.896 119.721,24.683 119.613,24.470 C117.550,27.761 116.400,30.863 116.349,35.427 C116.285,41.170 119.247,44.932 123.521,46.592 L123.521,46.592 ZM123.691,44.793 C123.732,44.226 123.760,43.657 123.776,43.084 C119.858,40.015 118.657,35.748 119.790,30.777 C120.065,29.573 120.441,28.410 120.906,27.292 C120.677,26.734 120.435,26.182 120.181,25.637 C119.312,27.253 118.627,29.146 118.166,30.784 C116.388,37.093 118.959,42.357 123.691,44.793 L123.691,44.793 ZM123.787,42.566 C123.798,41.838 123.788,41.111 123.758,40.383 C123.180,39.697 122.697,38.933 122.365,38.102 C121.479,35.883 121.145,33.619 121.633,31.209 C121.713,30.814 121.808,30.429 121.917,30.051 C121.691,29.356 121.447,28.668 121.184,27.990 C120.833,28.896 120.530,29.828 120.278,30.783 C119.627,33.247 119.588,36.053 120.671,38.391 C121.454,40.082 122.508,41.487 123.787,42.566 L123.787,42.566 ZM123.708,39.436 C123.518,36.516 123.005,33.684 122.203,30.976 L122.166,31.133 C121.460,34.219 122.094,37.127 123.708,39.436 L123.708,39.436 ZM119.253,23.643 C119.161,23.476 118.940,23.086 118.845,22.920 C118.365,24.282 118.289,25.141 118.078,26.154 C118.567,25.137 118.746,24.883 119.253,23.643 L119.253,23.643 ZM118.492,22.418 C118.373,22.215 118.252,22.013 118.130,21.813 C117.951,22.183 117.772,22.552 117.594,22.923 C113.669,31.132 113.829,36.827 108.054,45.374 C105.364,49.355 101.579,53.320 99.885,58.288 C99.938,58.567 99.976,58.935 99.986,59.429 C100.008,60.441 99.711,61.249 99.102,61.817 C98.148,71.750 109.449,75.063 114.866,66.293 C119.480,58.822 111.311,52.516 105.834,57.263 C103.164,59.577 104.489,62.806 104.483,62.864 C104.388,60.762 104.420,59.172 106.190,57.736 C107.871,56.371 109.669,56.165 111.656,57.042 C115.390,58.689 114.866,64.014 112.452,66.585 C106.572,72.845 97.289,65.644 102.275,55.944 C103.862,52.854 106.215,50.459 108.223,47.774 C112.079,42.618 113.330,39.604 115.565,33.952 C115.889,33.134 116.181,30.591 116.973,28.303 C117.842,25.793 117.898,24.500 118.492,22.418 L118.492,22.418 ZM117.888,21.422 C117.589,20.946 117.280,20.477 116.962,20.016 C115.735,22.456 114.604,25.096 113.847,27.174 C113.685,27.617 113.496,27.997 113.327,28.423 C112.382,30.805 111.542,33.178 110.660,35.629 C107.891,43.322 106.001,44.786 101.605,50.528 L101.649,50.567 C101.951,50.854 101.836,51.445 101.173,51.880 C100.507,52.316 100.093,52.662 100.093,52.662 C100.093,52.662 101.119,53.313 101.140,54.281 C101.141,54.342 101.134,54.401 101.120,54.457 C101.625,53.550 102.214,52.642 102.893,51.738 C106.791,46.549 108.634,44.344 111.417,38.387 C112.431,36.216 113.606,32.675 114.307,30.339 C115.078,27.776 116.312,24.951 117.397,22.492 C117.553,22.139 117.717,21.781 117.888,21.422 L117.888,21.422 ZM116.724,19.675 C116.367,19.169 115.999,18.672 115.619,18.184 C114.354,20.538 113.305,22.969 112.320,25.649 C110.940,29.405 108.306,34.792 105.008,37.152 C103.630,38.138 101.881,39.161 100.099,39.451 C100.531,39.920 100.983,40.400 101.421,40.860 C108.885,39.428 111.505,31.788 114.108,25.675 C115.256,22.977 115.830,21.458 116.724,19.675 L116.724,19.675 ZM115.347,17.840 C115.037,17.452 114.720,17.069 114.395,16.692 C113.401,18.583 111.015,23.869 110.144,26.058 C109.257,28.283 108.087,31.338 106.596,33.214 C105.233,34.930 103.137,36.802 100.813,37.097 C99.797,37.226 98.905,37.059 98.155,36.684 C98.271,37.160 98.485,37.619 98.843,38.040 C99.117,38.362 99.426,38.711 99.754,39.073 C101.207,38.900 102.699,38.247 103.712,37.506 C109.771,33.075 110.608,28.194 113.431,21.823 C113.978,20.590 114.624,19.220 115.347,17.840 L115.347,17.840 ZM114.148,16.409 C113.717,15.919 113.275,15.440 112.821,14.973 C111.922,16.516 107.665,26.754 107.835,27.572 C108.001,28.372 107.864,29.977 107.939,30.218 C108.246,29.630 108.527,28.979 108.806,28.370 C110.625,24.396 112.146,20.403 114.143,16.418 L114.148,16.409 L114.148,16.409 ZM103.985,43.528 C104.094,43.649 104.172,43.786 104.223,43.933 C105.831,41.895 108.572,38.511 109.103,36.622 C107.915,38.092 107.336,38.623 106.200,40.110 C105.451,41.091 104.606,42.149 103.726,43.252 C103.836,43.367 103.924,43.461 103.985,43.528 L103.985,43.528 ZM103.334,42.844 C104.747,41.243 106.132,39.628 106.256,39.317 C104.984,40.126 103.902,40.781 102.512,41.971 L103.334,42.844 L103.334,42.844 ZM102.244,41.718 C102.529,41.475 102.814,41.231 103.100,40.984 C102.727,41.020 102.259,41.136 101.785,41.241 L102.244,41.718 L102.244,41.718 ZM98.057,36.057 C98.180,36.134 98.308,36.205 98.441,36.269 C100.510,37.269 102.860,36.217 104.502,34.884 C110.398,30.095 107.157,21.019 98.644,22.919 C98.086,23.043 97.583,23.230 97.125,23.469 C97.457,23.990 97.756,24.604 98.003,25.322 C99.430,24.333 101.120,23.954 102.850,24.566 C107.891,26.346 107.286,32.803 101.816,35.374 C100.697,35.899 99.731,35.764 98.970,35.238 C98.601,35.321 98.249,35.372 98.052,35.344 C98.038,35.582 98.038,35.820 98.057,36.057 L98.057,36.057 ZM99.621,35.065 C100.169,35.293 100.821,35.310 101.573,35.016 C105.641,33.424 108.010,27.314 103.065,25.179 C101.220,24.382 99.523,24.743 98.134,25.729 C98.209,25.977 98.278,26.236 98.340,26.507 C98.459,26.427 98.581,26.348 98.708,26.273 C101.035,24.902 104.381,25.891 104.791,28.734 C105.095,30.837 103.668,33.345 101.544,33.771 C101.192,34.241 100.606,34.729 99.926,34.966 C99.834,34.998 99.731,35.032 99.621,35.065 L99.621,35.065 ZM101.171,33.823 C100.871,33.847 100.560,33.831 100.239,33.766 C99.492,33.615 98.929,33.202 98.552,32.652 C98.473,33.015 98.371,33.416 98.278,33.839 C98.488,34.180 98.740,34.481 99.033,34.715 C99.737,34.522 100.596,34.147 101.171,33.823 L101.171,33.823 ZM98.492,34.829 C98.375,34.707 98.263,34.577 98.160,34.437 C98.137,34.568 98.117,34.699 98.100,34.833 C98.206,34.851 98.340,34.848 98.492,34.829 L98.492,34.829 ZM98.679,31.850 C98.892,32.486 99.310,33.007 99.950,33.223 C102.176,33.974 104.173,31.729 104.338,29.669 C104.617,26.187 101.034,25.347 98.453,27.051 C98.481,27.203 98.507,27.357 98.532,27.515 C99.290,26.880 100.374,26.557 101.832,26.778 C104.873,27.240 104.527,31.351 102.394,32.433 C100.367,33.462 98.314,32.086 99.152,29.417 C99.396,28.737 99.588,28.536 100.160,28.007 C99.460,28.222 98.972,28.823 98.717,29.549 C98.743,30.263 98.732,31.029 98.679,31.850 L98.679,31.850 ZM98.659,28.582 C98.868,28.292 99.125,28.033 99.433,27.821 C100.457,27.117 102.477,27.351 102.578,28.724 C102.706,30.467 100.188,31.135 100.341,29.648 C100.468,29.867 100.621,29.978 100.801,29.973 C102.735,29.520 101.271,27.733 100.327,28.597 C99.691,29.179 99.297,31.197 100.506,31.497 C102.402,31.967 104.974,28.197 102.146,27.271 C100.737,26.810 99.468,27.242 98.614,28.137 C98.631,28.283 98.646,28.431 98.659,28.582 L98.659,28.582 ZM78.571,75.926 C79.375,76.118 80.171,76.387 80.876,76.750 C82.869,77.775 85.200,78.673 87.331,79.351 C90.469,80.349 91.805,80.202 94.801,79.047 C96.491,78.395 99.017,76.619 100.334,75.432 L99.408,74.897 C98.633,75.572 99.271,75.449 97.118,77.124 C94.589,79.092 89.493,80.277 86.511,78.762 C84.389,77.684 82.861,76.533 80.495,75.843 C79.774,75.632 79.165,75.471 78.623,75.354 C78.603,75.541 78.586,75.732 78.571,75.926 L78.571,75.926 ZM78.674,74.913 C82.933,75.458 85.855,78.727 88.636,79.000 C90.990,79.230 92.678,78.951 94.788,77.969 C96.412,77.211 98.042,76.177 99.012,74.817 C98.738,74.479 98.533,74.416 98.205,74.359 C95.671,76.773 92.094,78.321 88.576,77.759 C85.345,77.242 81.846,74.918 78.680,74.863 L78.674,74.913 L78.674,74.913 ZM78.792,74.143 C82.331,74.507 85.594,75.619 89.004,74.189 C90.302,73.645 91.973,72.497 92.494,71.248 C92.112,71.458 91.223,72.358 90.729,72.741 C90.143,73.196 89.318,73.624 88.593,73.794 C86.747,74.227 84.650,74.267 82.771,74.033 C81.420,73.864 80.189,73.675 78.905,73.584 C78.863,73.770 78.826,73.955 78.792,74.143 L78.792,74.143 ZM79.020,73.113 C82.832,72.493 86.832,69.422 87.105,64.707 C87.177,63.449 86.884,62.296 86.322,61.327 C85.924,61.368 85.628,61.484 85.463,61.703 L85.446,61.725 C86.554,63.729 86.435,66.488 84.687,68.935 C83.402,70.734 81.355,71.958 79.259,72.305 C79.171,72.575 79.091,72.845 79.020,73.113 L79.020,73.113 ZM79.432,71.798 C80.918,71.532 82.399,70.829 83.590,69.721 C85.279,68.150 86.287,64.915 85.462,62.644 C85.386,62.435 85.297,62.237 85.198,62.049 C85.053,62.239 84.870,62.477 84.661,62.757 C84.679,62.813 84.696,62.868 84.711,62.924 C85.375,65.469 84.389,67.463 82.818,69.304 C82.106,70.139 80.955,70.747 79.719,71.051 C79.618,71.300 79.522,71.549 79.432,71.798 L79.432,71.798 ZM79.955,70.493 C80.895,70.188 81.826,69.638 82.666,68.798 C84.501,66.965 84.892,64.869 84.344,63.183 C84.236,63.330 80.093,70.178 79.955,70.493 L79.955,70.493 ZM86.724,61.308 C86.817,61.477 86.910,61.647 86.991,61.824 C87.274,62.439 87.091,62.308 87.730,62.611 C88.690,63.067 89.381,63.077 90.395,62.764 C90.855,62.622 91.269,62.418 91.640,62.163 C91.375,62.108 91.114,62.051 90.857,61.996 C90.703,62.054 90.539,62.104 90.361,62.143 C88.763,62.499 87.966,61.894 87.304,61.339 C87.097,61.320 86.904,61.309 86.724,61.308 L86.724,61.308 ZM87.620,61.375 C88.452,61.971 89.323,62.069 90.158,61.845 C89.219,61.644 88.353,61.466 87.620,61.375 L87.620,61.375 ZM91.949,62.228 C90.132,63.280 89.902,63.637 87.342,62.811 C87.727,64.913 91.194,63.731 92.269,62.294 L91.949,62.228 L91.949,62.228 ZM92.970,62.431 C92.590,63.192 91.870,63.979 91.305,64.384 C90.181,65.189 88.825,65.165 87.493,65.297 L87.316,66.202 C88.607,66.443 90.332,65.807 91.349,65.012 C91.973,64.525 92.797,63.437 93.099,62.455 L92.970,62.431 L92.970,62.431 ZM99.674,57.653 C100.004,56.709 100.425,55.750 100.941,54.786 C100.432,55.389 99.121,55.734 99.139,56.611 C99.153,57.269 99.438,57.231 99.674,57.653 L99.674,57.653 ZM101.286,50.277 C103.173,47.820 105.224,45.661 107.061,42.500 C107.983,40.912 110.512,35.759 111.223,33.291 L108.883,38.067 C107.616,40.291 105.918,42.310 104.291,44.372 C104.285,44.888 104.001,45.449 103.486,45.853 C103.320,45.983 103.087,46.109 102.821,46.239 C102.015,47.273 101.221,48.319 100.459,49.386 C100.692,49.783 101.022,50.069 101.286,50.277 L101.286,50.277 ZM100.289,49.022 C100.890,48.187 101.514,47.364 102.147,46.552 C101.186,46.998 100.152,47.529 100.170,48.367 C100.175,48.609 100.219,48.826 100.289,49.022 L100.289,49.022 ZM103.682,29.483 C103.571,30.222 102.799,31.213 102.161,31.585 C101.023,32.249 100.209,32.047 99.398,31.132 C99.965,33.462 103.743,32.302 103.682,29.483 L103.682,29.483 ZM116.270,42.380 C116.081,44.815 115.371,46.615 114.174,48.668 C113.846,49.230 113.347,49.738 113.025,50.229 L114.329,50.203 C115.671,48.084 116.995,44.857 116.270,42.380 L116.270,42.380 ZM116.704,42.465 C116.681,44.416 116.808,45.010 116.217,46.948 C115.827,48.226 115.194,49.101 114.723,50.222 L115.861,50.359 C116.344,49.687 116.809,47.651 116.952,46.739 C117.129,45.619 117.175,43.452 116.704,42.465 L116.704,42.465 ZM117.419,43.996 C117.338,47.048 117.195,47.621 116.256,50.429 L117.747,50.933 C118.148,48.966 118.258,45.817 117.419,43.996 L117.419,43.996 ZM117.587,42.811 C117.836,44.250 118.310,45.355 118.477,46.940 C118.648,48.576 118.529,49.523 117.994,51.080 L118.624,51.410 C119.140,49.672 119.314,48.646 118.953,46.812 C118.769,45.870 118.157,43.409 117.587,42.811 L117.587,42.811 ZM118.611,44.040 C119.005,45.421 119.329,46.173 119.450,47.679 C119.635,49.970 119.059,50.610 118.916,51.670 L119.514,52.090 C120.768,50.736 120.695,46.153 118.611,44.040 L118.611,44.040 ZM119.951,45.496 C121.035,49.095 120.823,48.919 119.831,52.386 L120.455,53.134 C121.245,52.561 121.743,50.069 121.700,49.066 C121.651,47.943 120.860,46.074 119.951,45.496 L119.951,45.496 ZM121.127,46.408 C122.030,49.183 122.735,50.001 121.071,52.857 C120.642,53.596 120.644,53.579 121.161,54.326 C122.304,52.088 123.389,49.375 121.127,46.408 L121.127,46.408 ZM92.477,62.572 C91.358,63.192 90.340,65.105 87.533,63.881 L87.519,64.931 C89.320,64.963 91.916,64.528 92.477,62.572 L92.477,62.572 ZM108.695,61.671 C110.855,61.501 109.408,64.753 107.262,63.899 C105.673,63.267 105.794,60.869 106.803,59.761 C107.900,58.556 110.106,58.609 111.088,59.840 C112.394,61.480 111.358,63.061 111.195,64.649 C113.148,63.017 112.759,58.823 110.452,57.774 C107.946,56.635 104.774,59.482 105.665,62.318 C106.901,66.248 110.962,64.607 110.736,61.996 C110.592,60.324 109.346,59.724 107.919,60.525 C107.317,60.863 106.789,61.500 107.392,62.127 C108.317,63.088 108.486,62.044 108.695,61.671 L108.695,61.671 ZM109.145,62.110 C108.862,62.511 108.851,62.949 108.108,62.918 C106.751,62.860 106.097,60.798 107.971,59.990 C110.283,58.993 111.785,61.236 110.908,63.276 C110.114,65.126 107.925,65.773 106.409,64.285 C105.026,62.929 104.875,60.873 105.725,58.978 C102.030,65.555 111.013,67.833 111.413,62.359 C111.492,61.280 111.145,59.917 110.093,59.429 C107.780,58.353 105.282,61.378 106.888,63.097 C107.744,64.013 109.333,63.425 109.145,62.110 L109.145,62.110 ZM110.926,57.464 C112.799,58.315 113.355,61.633 112.601,63.439 C111.758,65.458 109.422,66.596 107.279,66.540 C104.968,66.479 103.424,65.213 102.735,63.139 C102.158,61.402 103.045,57.843 103.846,56.217 C105.762,52.328 108.476,49.989 110.918,46.586 C112.181,44.828 113.066,43.321 113.997,41.323 C114.570,40.093 115.791,35.994 115.697,34.752 C114.782,36.878 113.971,38.992 112.901,41.166 C109.285,48.508 103.995,51.865 101.896,58.032 C98.508,67.990 110.328,72.559 113.569,63.469 C114.446,61.008 113.474,58.221 110.926,57.464 L110.926,57.464 ZM87.249,66.603 L86.836,67.710 C88.234,67.721 89.812,67.429 90.928,66.586 C91.671,66.025 92.802,64.710 92.863,63.689 C92.459,65.187 88.841,67.201 87.249,66.603 L87.249,66.603 ZM86.646,68.034 L85.993,69.150 C87.598,69.287 89.273,68.963 90.572,67.996 C91.567,67.255 92.765,65.943 92.896,64.623 C91.983,67.067 89.268,68.242 86.646,68.034 L86.646,68.034 ZM85.757,69.419 L84.703,70.679 C86.579,70.636 88.503,70.410 90.099,69.405 C91.321,68.636 92.784,67.242 92.909,65.667 C92.259,66.834 91.416,67.917 90.238,68.604 C88.546,69.589 87.692,69.592 85.757,69.419 L85.757,69.419 ZM92.904,66.921 C91.956,68.620 90.947,69.627 89.047,70.351 C85.356,71.758 84.303,70.186 83.337,71.824 C86.041,71.891 86.993,71.823 89.483,70.789 C91.114,70.111 92.814,68.832 92.904,66.921 L92.904,66.921 ZM93.251,67.404 C92.547,68.503 92.732,69.052 91.451,70.049 C89.856,71.291 86.819,72.197 84.809,72.239 C82.725,72.282 83.480,71.646 81.541,72.771 C84.428,72.913 87.119,73.610 89.466,72.414 C91.324,71.466 93.510,69.790 93.251,67.404 L93.251,67.404 ZM92.920,69.980 C90.425,73.143 87.575,73.930 83.753,73.163 C82.766,72.966 80.756,72.888 79.935,73.417 C82.490,73.794 85.375,74.299 87.945,73.711 C89.851,73.275 92.447,71.693 92.920,69.980 L92.920,69.980 ZM93.656,68.965 C93.115,70.811 92.894,72.081 91.242,73.258 C90.518,73.773 89.908,74.167 89.060,74.483 C88.348,74.748 86.861,74.911 86.405,75.219 C89.521,75.441 93.254,73.514 94.569,70.821 L93.656,68.965 L93.656,68.965 ZM94.800,71.074 C94.378,71.527 94.080,72.301 93.590,72.776 C92.028,74.290 89.966,75.165 87.895,75.604 C90.608,75.995 95.221,73.737 95.742,72.241 L94.800,71.074 L94.800,71.074 ZM95.962,72.519 C94.843,73.912 94.021,74.527 92.277,75.229 C90.218,76.057 88.827,75.917 86.681,76.015 C88.137,76.695 91.101,76.294 92.649,75.836 C94.597,75.261 95.425,74.535 96.803,73.293 L95.962,72.519 L95.962,72.519 ZM97.067,73.436 C96.378,73.887 96.710,74.300 94.425,75.492 C93.261,76.100 92.219,76.373 90.907,76.566 C89.406,76.786 88.203,76.657 86.725,76.419 C85.544,76.228 84.174,75.708 83.079,75.578 C83.448,75.655 84.394,76.133 84.857,76.300 C90.392,78.287 93.101,77.733 98.002,74.286 C97.797,73.803 97.480,73.829 97.067,73.436 Z" class="cls-1"/>
</svg>
